<svg id="visual" viewBox="0 0 900 600" width="900" height="600" xmlns="http://www.w3.org/2000/svg" xmlns:xlink="http://www.w3.org/1999/xlink" version="1.1"><rect x="0" y="0" width="900" height="600" fill="#8580A6"></rect><path d="M0 427L18.8 434.5C37.7 442 75.3 457 112.8 448.7C150.3 440.3 187.7 408.7 225.2 402.8C262.7 397 300.3 417 337.8 419C375.3 421 412.7 405 450.2 396.2C487.7 387.3 525.3 385.7 562.8 396.7C600.3 407.7 637.7 431.3 675.2 431.8C712.7 432.3 750.3 409.7 787.8 411.5C825.3 413.3 862.7 439.7 881.3 452.8L900 466L900 601L881.3 601C862.7 601 825.3 601 787.8 601C750.3 601 712.7 601 675.2 601C637.7 601 600.3 601 562.8 601C525.3 601 487.7 601 450.2 601C412.7 601 375.3 601 337.8 601C300.3 601 262.7 601 225.2 601C187.7 601 150.3 601 112.8 601C75.3 601 37.7 601 18.8 601L0 601Z" fill="#a58da6"></path><path d="M0 548L18.8 543.8C37.7 539.7 75.3 531.3 112.8 531C150.3 530.7 187.7 538.3 225.2 539C262.7 539.7 300.3 533.3 337.8 532.3C375.3 531.3 412.7 535.7 450.2 529C487.7 522.3 525.3 504.7 562.8 496.2C600.3 487.7 637.7 488.3 675.2 488.8C712.7 489.3 750.3 489.7 787.8 490.3C825.3 491 862.7 492 881.3 492.5L900 493L900 601L881.3 601C862.7 601 825.3 601 787.8 601C750.3 601 712.7 601 675.2 601C637.7 601 600.3 601 562.8 601C525.3 601 487.7 601 450.2 601C412.7 601 375.3 601 337.8 601C300.3 601 262.7 601 225.2 601C187.7 601 150.3 601 112.8 601C75.3 601 37.7 601 18.8 601L0 601Z" fill="#bf9fba"></path></svg>